<svg class="thumb" width="410" height="200" viewBox="0,0,410,200" xmlns="http://www.w3.org/2000/svg" xmlns:inkscape="http://www.inkscape.org/namespaces/inkscape" xmlns:sodipodi="http://sodipodi.sourceforge.net/DTD/sodipodi-0.dtd" xmlns:xlink="http://www.w3.org/1999/xlink" xmlns:ns1="http://www.inkscape.org/namespaces/inkscape" xmlns:sketch="http://www.bohemiancoding.com/sketch/ns"><defs></defs><g><g transform="matrix(0.9425,0,0,0.9425,57.3508,12.8508)"><svg width="186.614" height="186.614" viewBox="-5,-4.987,186.614,186.614" class="thumb"><defs><linearGradient x1="0" y1="0.5" x2="1" y2="0.5" id="linearGradientSk1mi7fxvay"><stop offset="0%" stop-color="#ffc400"></stop><stop offset="100%" stop-color="#ffc400"></stop></linearGradient></defs><g><path d="M88.307,0.013C39.536,0.013,0,39.549,0,88.32c0,48.77,39.536,88.307,88.307,88.307
	c48.77,0,88.307-39.537,88.307-88.307C176.613,39.549,137.076,0.013,88.307,0.013z M88.307,163.341
	c-41.433,0-75.021-33.589-75.021-75.021c0-41.433,33.587-75.021,75.021-75.021c41.432,0,75.021,33.587,75.021,75.021
	C163.327,129.752,129.738,163.341,88.307,163.341z" fill="url('#linearGradientSk1mi7fxvay')"></path></g></svg></g><g transform="matrix(1.0753,0,0,1.0753,44.9999,-0.0001)"><svg width="186.614" height="186.614" viewBox="-5,-4.987,186.614,186.614" class="thumb"><defs><linearGradient x1="0" y1="0.5" x2="1" y2="0.5" id="linearGradientSk1mi7fxvb4"><stop offset="0%" stop-color="#ffc400"></stop><stop offset="100%" stop-color="#ffc400"></stop></linearGradient></defs><g><path d="M88.307,0.013C39.536,0.013,0,39.549,0,88.32c0,48.77,39.536,88.307,88.307,88.307
	c48.77,0,88.307-39.537,88.307-88.307C176.613,39.549,137.076,0.013,88.307,0.013z M88.307,163.341
	c-41.433,0-75.021-33.589-75.021-75.021c0-41.433,33.587-75.021,75.021-75.021c41.432,0,75.021,33.587,75.021,75.021
	C163.327,129.752,129.738,163.341,88.307,163.341z" fill="url('#linearGradientSk1mi7fxvb4')"></path></g></svg></g><g transform="matrix(0.8425,0,0,0.8425,66.6493,21.0963)"><svg width="186.614" height="186.614" viewBox="-5,-4.987,186.614,186.614" class="thumb"><defs><linearGradient x1="0" y1="0.5" x2="1" y2="0.5" id="linearGradientSk1mi7fxvba"><stop offset="0%" stop-color="#ffc400"></stop><stop offset="100%" stop-color="#ffc400"></stop></linearGradient></defs><g><path d="M88.307,0.013C39.536,0.013,0,39.549,0,88.32c0,48.77,39.536,88.307,88.307,88.307
	c48.77,0,88.307-39.537,88.307-88.307C176.613,39.549,137.076,0.013,88.307,0.013z M88.307,163.341
	c-41.433,0-75.021-33.589-75.021-75.021c0-41.433,33.587-75.021,75.021-75.021c41.432,0,75.021,33.587,75.021,75.021
	C163.327,129.752,129.738,163.341,88.307,163.341z" fill="url('#linearGradientSk1mi7fxvba')"></path></g></svg></g><g transform="matrix(0.5,0,0,0.5,118.75,39)"><svg width="413" height="246" style="overflow: visible;"><defs><linearGradient x1="0" y1="0.5" x2="1" y2="0.5" id="linearGradientSk1mi7fxvc7"><stop offset="0%" stop-color="#000000"></stop><stop offset="100%" stop-color="#000000"></stop></linearGradient></defs><g><path d="M-151.608984375 0.73L-151.608984375 0.73Q-153.568984375 0.73 -155.838984375 0.42Q-158.108984375 0.1 -160.37898437500002-0.93Q-162.648984375-1.95 -164.718984375-3.83Q-166.798984375-5.71 -168.378984375-8.79Q-169.968984375-11.87 -170.918984375-16.38Q-171.878984375-20.9 -171.878984375-27.15L-171.878984375-27.15L-171.878984375-56.69Q-171.878984375-62.99 -170.898984375-67.46Q-169.918984375-71.92 -168.308984375-74.98Q-166.698984375-78.03 -164.598984375-79.83Q-162.498984375-81.64 -160.248984375-82.59Q-158.008984375-83.54 -155.78898437499998-83.84Q-153.568984375-84.13 -151.658984375-84.13L-151.658984375-84.13Q-146.678984375-84.13 -143.338984375-82.74Q-139.988984375-81.35 -137.958984375-78.93Q-135.938984375-76.51 -135.078984375-73.29Q-134.228984375-70.07 -134.228984375-66.46L-134.228984375-66.46Q-134.228984375-63.77 -134.498984375-61.5Q-134.768984375-59.23 -135.298984375-56.49L-135.298984375-56.49L-145.558984375-56.49L-145.558984375-60.74Q-145.558984375-67.63 -147.068984375-71.04Q-148.578984375-74.46 -151.508984375-74.46L-151.508984375-74.46Q-153.268984375-74.46 -154.588984375-73.78Q-155.908984375-73.1 -156.78898437499998-71.46Q-157.668984375-69.82 -158.12898437500002-67.14Q-158.588984375-64.45 -158.588984375-60.45L-158.588984375-60.45L-158.588984375-22.36Q-158.588984375-18.46 -158.228984375-15.87Q-157.858984375-13.28 -157.028984375-11.72Q-156.198984375-10.16 -154.858984375-9.5Q-153.518984375-8.84 -151.608984375-8.84L-151.608984375-8.84Q-150.388984375-8.84 -149.268984375-9.4Q-148.148984375-9.96 -147.28898437499998-11.16Q-146.438984375-12.35 -145.918984375-14.18Q-145.408984375-16.02 -145.408984375-18.51L-145.408984375-18.51L-145.408984375-26.66L-133.838984375-26.66L-133.838984375-18.95Q-133.838984375-8.89 -138.428984375-4.1Q-143.018984375 0.68 -151.608984375 0.73ZM-107.71585937500001 0.73L-107.71585937500001 0.73Q-109.865859375 0.73 -112.085859375 0.39Q-114.305859375 0.05 -116.385859375-1.03Q-118.455859375-2.1 -120.285859375-4.1Q-122.115859375-6.1 -123.485859375-9.38Q-124.855859375-12.65 -125.635859375-17.43Q-126.415859375-22.22 -126.415859375-28.86L-126.415859375-28.86L-126.415859375-39.4Q-126.415859375-45.95 -125.605859375-50.61Q-124.805859375-55.27 -123.415859375-58.45Q-122.025859375-61.62 -120.165859375-63.5Q-118.305859375-65.38 -116.235859375-66.38Q-114.155859375-67.38 -111.96585937500001-67.7Q-109.765859375-68.02 -107.665859375-68.02L-107.665859375-68.02Q-105.665859375-68.02 -103.515859375-67.72Q-101.365859375-67.43 -99.315859375-66.48Q-97.26585937499999-65.53 -95.435859375-63.65Q-93.605859375-61.77 -92.21585937500001-58.59Q-90.815859375-55.42 -90.01585937499999-50.71Q-89.205859375-46 -89.205859375-39.4L-89.205859375-39.4L-89.205859375-28.86Q-89.205859375-22.31 -90.035859375-17.58Q-90.865859375-12.84 -92.285859375-9.57Q-93.705859375-6.3 -95.555859375-4.27Q-97.415859375-2.25 -99.46585937500001-1.12Q-101.515859375 0 -103.635859375 0.37Q-105.765859375 0.73 -107.71585937500001 0.73ZM-107.615859375-8.79L-107.615859375-8.79Q-105.955859375-8.79 -104.805859375-9.64Q-103.665859375-10.5 -102.955859375-12.45Q-102.245859375-14.4 -101.925859375-17.6Q-101.615859375-20.8 -101.615859375-25.54L-101.615859375-25.54L-101.615859375-42.09Q-101.615859375-46.83 -101.925859375-50.05Q-102.245859375-53.27 -102.955859375-55.25Q-103.665859375-57.23 -104.805859375-58.11Q-105.955859375-58.98 -107.615859375-58.98L-107.615859375-58.98Q-109.375859375-58.98 -110.575859375-58.11Q-111.765859375-57.23 -112.54585937499999-55.25Q-113.325859375-53.27 -113.675859375-50.05Q-114.015859375-46.83 -114.015859375-42.09L-114.015859375-42.09L-114.015859375-25.54Q-114.015859375-20.8 -113.675859375-17.6Q-113.325859375-14.4 -112.54585937499999-12.45Q-111.765859375-10.5 -110.575859375-9.64Q-109.375859375-8.79 -107.615859375-8.79ZM-78.269140625 0L-78.269140625-67.24L-68.699140625-67.24L-67.629140625-60.06L-67.629140625-60.01Q-66.15914062499999-62.3 -64.499140625-63.84Q-62.839140625-65.38 -61.059140625-66.31Q-59.279140625-67.24 -57.399140625-67.63Q-55.519140625-68.02 -53.659140625-68.02L-53.659140625-68.02Q-49.709140625-68.02 -46.969140625-66.11Q-44.239140625-64.21 -42.819140625-60.4L-42.819140625-60.4Q-41.359140625-62.6 -39.719140625-64.06Q-38.089140625-65.53 -36.329140625-66.41Q-34.569140625-67.29 -32.759140625-67.65Q-30.959140625000003-68.02 -29.099140624999997-68.02L-29.099140624999997-68.02Q-23.239140624999997-68.02 -20.039140625-63.89Q-16.849140625000004-59.77 -16.849140625000004-51.51L-16.849140625000004-51.51L-16.849140625000004 0L-29.199140625 0L-29.199140625-51.07Q-29.199140625-53.27 -29.539140625-54.79Q-29.879140624999998-56.3 -30.569140625000003-57.23Q-31.249140625000003-58.15 -32.329140625-58.57Q-33.399140625-58.98 -34.909140625-58.98L-34.909140625-58.98Q-36.619140625-58.98 -38.329140625-57.74Q-40.039140625-56.49 -41.459140625-54.3L-41.459140625-54.3Q-41.409140625-53.86 -41.409140625-53.42Q-41.409140625-52.98 -41.409140625-52.54L-41.409140625-52.54L-41.409140625 0L-53.759140625 0L-53.759140625-51.07Q-53.759140625-53.27 -54.099140625000004-54.79Q-54.439140625-56.3 -55.129140625000005-57.23Q-55.809140625-58.15 -56.889140624999996-58.57Q-57.959140625-58.98 -59.469140625-58.98L-59.469140625-58.98Q-61.129140625000005-58.98 -62.839140625-57.76Q-64.549140625-56.54 -65.919140625-54.39L-65.919140625-54.39L-65.919140625 0L-78.269140625 0ZM 7.909609375000004-4.44L 8.299609375000005 3.81L 8.299609375000005 21.73L-4.050390624999995 21.73L-4.050390624999995-67.24L 5.619609375000005-67.24L 6.739609375000006-60.16Q 7.569609375000004-61.52  8.719609375000006-62.94Q 9.859609375000007-64.36  11.399609375000006-65.45Q 12.939609375000005-66.55  14.869609375000005-67.26Q 16.799609375000003-67.97  19.189609375000003-67.97L 19.189609375000003-67.97Q 20.219609375000005-67.97  21.65960937500001-67.77Q 23.099609375000007-67.58  24.62960937500001-66.8Q 26.169609375000007-66.02  27.709609375000007-64.48Q 29.249609375000006-62.94  30.43960937500001-60.25Q 31.639609375000006-57.57  32.399609375000004-53.56Q 33.149609375000004-49.56  33.149609375000004-43.85L 33.149609375000004-43.85L 33.149609375000004-23.49Q 33.149609375000004-17.77  32.399609375000004-13.77Q 31.639609375000006-9.77  30.419609375000007-7.08Q 29.19960937500001-4.39  27.639609375000006-2.83Q 26.069609375000006-1.27  24.459609375000007-0.49Q 22.849609375000007 0.29  21.339609375000002 0.51Q 19.819609375000006 0.73  18.69960937500001 0.73L 18.69960937500001 0.73Q 14.799609375000005 0.73  12.179609375000004-0.78Q 9.569609375000004-2.29  7.909609375000004-4.44L 7.909609375000004-4.44ZM 8.299609375000005-54.35L 8.299609375000005-13.72Q 8.689609375000005-12.74  9.249609375000004-11.87Q 9.809609375000006-10.99  10.569609375000004-10.3Q 11.329609375000006-9.62  12.279609375000005-9.2Q 13.229609375000004-8.79  14.499609375000004-8.79L 14.499609375000004-8.79Q 15.869609375000005-8.79  16.989609375000008-9.3Q 18.119609375000003-9.81  18.94960937500001-11.16Q 19.779609375000007-12.5  20.239609375000008-14.89Q 20.69960937500001-17.29  20.69960937500001-21.04L 20.69960937500001-21.04L 20.69960937500001-46.78Q 20.69960937500001-50.54  20.239609375000008-52.91Q 19.779609375000007-55.27  18.969609375000005-56.64Q 18.159609375000002-58.01  17.039609375000005-58.5Q 15.919609375000006-58.98  14.549609375000005-58.98L 14.549609375000005-58.98Q 12.209609375000005-58.98  10.719609375000006-57.59Q 9.229609375000004-56.2  8.299609375000005-54.35L 8.299609375000005-54.35ZM 53.569453124999995 0.73L 53.569453124999995 0.73Q 50.43945312499999 0.73  48.01945312499999-0.51Q 45.609453124999995-1.76  43.94945312499999-3.91Q 42.289453124999994-6.05  41.429453124999995-9.01Q 40.57945312499999-11.96  40.57945312499999-15.43L 40.57945312499999-15.43Q 40.57945312499999-19.58  41.599453125-22.8Q 42.62945312499999-26.03  44.609453124999995-28.61Q 46.57945312499999-31.2  49.50945312499999-33.33Q 52.43945312499999-35.45  56.29945312499999-37.35L 56.29945312499999-37.35Q 58.149453124999994-38.28  60.469453124999994-39.23Q 62.789453124999994-40.19  64.599453125-40.87L 64.599453125-40.87L 64.599453125-49.76Q 64.599453125-51.71  64.44945312499999-53.39Q 64.30945312499999-55.08  63.74945312499999-56.32Q 63.179453124999995-57.57  62.05945312499999-58.28Q 60.93945312499999-58.98  58.97945312499999-58.98L 58.97945312499999-58.98Q 57.66945312499999-58.98  56.41945312499999-58.5Q 55.179453124999995-58.01  54.219453124999994-56.84Q 53.26945312499999-55.66  52.709453124999996-53.71Q 52.149453124999994-51.76  52.149453124999994-48.88L 52.149453124999994-48.88L 52.149453124999994-45.95L 42.72945312499999-45.95Q 42.289453124999994-47.85  42.069453124999995-49.44Q 41.849453125-51.03  41.849453125-52.59L 41.849453125-52.59Q 41.849453125-56.35  43.139453124999996-59.23Q 44.429453124999995-62.11  46.749453124999995-64.06Q 49.069453124999995-66.02  52.29945312499999-67.02Q 55.51945312499999-68.02  59.379453125-68.02L 59.379453125-68.02Q 64.399453125-68.02  67.72945312499999-66.92Q 71.04945312499999-65.82  73.01945312499998-63.62Q 74.999453125-61.43  75.80945312499999-58.11Q 76.60945312499999-54.79  76.60945312499999-50.34L 76.60945312499999-50.34L 76.60945312499999 0L 67.429453125 0L 66.54945312499999-5.76Q 64.54945312499999-2.88  61.209453124999996-1.07Q 57.859453124999995 0.73  53.569453124999995 0.73ZM 59.02945312499999-8.79L 59.02945312499999-8.79Q 60.599453125-8.79  62.08945312499999-9.59Q 63.569453124999995-10.4  64.599453125-11.57L 64.599453125-11.57L 64.599453125-32.62Q 63.61945312499999-32.23  62.399453124999994-31.69Q 61.179453124999995-31.15  59.76945312499999-30.27L 59.76945312499999-30.27Q 58.44945312499999-29.44  57.179453124999995-28.27Q 55.90945312499999-27.1  54.90945312499999-25.49Q 53.90945312499999-23.88  53.29945312499999-21.85Q 52.68945312499999-19.82  52.68945312499999-17.33L 52.68945312499999-17.33Q 52.68945312499999-13.48  54.19945312499999-11.13Q 55.709453124999996-8.79  59.02945312499999-8.79ZM 89.40664062499998 0L 89.40664062499998-67.24L 98.92664062499999-67.24L 100.04664062499998-60.06L 100.04664062499998-60.01Q 101.51664062499998-62.3  103.19664062499999-63.84Q 104.88664062499998-65.38  106.68664062499998-66.31Q 108.49664062499998-67.24  110.376640625-67.63Q 112.25664062499999-68.02  114.10664062499998-68.02L 114.10664062499998-68.02Q 120.01664062499998-68.02  123.21664062499998-63.89Q 126.41664062499999-59.77  126.41664062499999-51.51L 126.41664062499999-51.51L 126.41664062499999 0L 114.06664062499999 0L 114.06664062499999-51.07Q 114.06664062499999-55.52  112.69664062499999-57.25Q 111.32664062499998-58.98  108.68664062499998-58.98L 108.68664062499998-58.98Q 106.83664062499999-58.98  105.00664062499999-57.76Q 103.17664062499999-56.54  101.75664062499999-54.39L 101.75664062499999-54.39L 101.75664062499999 0L 89.40664062499998 0ZM 136.671328125 12.94L 136.671328125 12.94Q 139.451328125 13.33  141.801328125 12.77Q 144.141328125 12.21  145.821328125 10.64Q 147.511328125 9.08  148.511328125 6.52Q 149.511328125 3.96  149.661328125 0.39L 149.661328125 0.39L 133.741328125-67.24L 146.291328125-67.24L 153.371328125-30.03L 155.421328125-17.19L 155.811328125-17.19L 157.231328125-30.03L 162.94132812499998-67.24L 175.101328125-67.24L 160.94132812499998 2.49Q 160.011328125 7.32  158.571328125 10.94Q 157.131328125 14.55  155.001328125 16.94Q 152.881328125 19.34  149.951328125 20.53Q 147.021328125 21.73  143.111328125 21.73L 143.111328125 21.73Q 139.941328125 21.73  136.621328125 20.51L 136.621328125 20.51L 136.671328125 12.94Z" data-textpath="Company" data-text-anchor="middle" data-font-size="100" data-letterspacing="0" data-side="left" data-offset="0" data-dx="0" data-dy="139.5" data-xmlspace="preserve" data-href="" data-font="Fjalla One" data-font-src="/Content/clientfonts/fjallaone.woff" data-font-scale="contain" transform="translate(206.5,139.5)" data-x="206.5" data-y="0" fill="url('#linearGradientSk1mi7fxvc7')"></path></g></svg></g><g transform="matrix(0.5,0,0,0.5,120.25,87)"><svg width="279" height="246" style="overflow: visible;"><defs><linearGradient x1="0" y1="0.5" x2="1" y2="0.5" id="linearGradientSk1mi7fxvca"><stop offset="0%" stop-color="#000000"></stop><stop offset="100%" stop-color="#000000"></stop></linearGradient></defs><g><path d="M-102.5623828125 0L-102.5623828125-83.4L-92.3123828125-83.4L-72.0923828125-27.59L-71.8023828125-27.59Q-71.95238281249999-29.54 -72.1923828125-31.93Q-72.43238281250001-34.33 -72.6323828125-37.38Q-72.8223828125-40.43 -72.9723828125-44.29Q-73.1223828125-48.14 -73.1223828125-52.98L-73.1223828125-52.98L-73.1223828125-83.4L-61.7923828125-83.4L-61.7923828125 0L-72.1423828125 0L-92.2623828125-54.35L-92.65238281250001-54.35Q-92.5023828125-52.15 -92.2623828125-49.58Q-92.0123828125-47.02 -91.8223828125-43.55Q-91.6223828125-40.09 -91.48238281249999-35.47Q-91.3323828125-30.86 -91.3323828125-24.51L-91.3323828125-24.51L-91.3323828125 0L-102.5623828125 0ZM-39.0330859375 0.73L-39.0330859375 0.73Q-42.1630859375 0.73 -44.5830859375-0.51Q-46.9930859375-1.76 -48.6530859375-3.91Q-50.3130859375-6.05 -51.1730859375-9.01Q-52.0230859375-11.96 -52.0230859375-15.43L-52.0230859375-15.43Q-52.0230859375-19.58 -51.0030859375-22.8Q-49.9730859375-26.03 -47.9930859375-28.61Q-46.0230859375-31.2 -43.0930859375-33.33Q-40.1630859375-35.45 -36.3030859375-37.35L-36.3030859375-37.35Q-34.4530859375-38.28 -32.1330859375-39.23Q-29.8130859375-40.19 -28.0030859375-40.87L-28.0030859375-40.87L-28.0030859375-49.76Q-28.0030859375-51.71 -28.1530859375-53.39Q-28.2930859375-55.08 -28.8530859375-56.32Q-29.4230859375-57.57 -30.5430859375-58.28Q-31.6630859375-58.98 -33.6230859375-58.98L-33.6230859375-58.98Q-34.933085937499996-58.98 -36.183085937499996-58.5Q-37.423085937500005-58.01 -38.3830859375-56.84Q-39.3330859375-55.66 -39.893085937500004-53.71Q-40.4530859375-51.76 -40.4530859375-48.88L-40.4530859375-48.88L-40.4530859375-45.95L-49.8730859375-45.95Q-50.3130859375-47.85 -50.5330859375-49.44Q-50.7530859375-51.03 -50.7530859375-52.59L-50.7530859375-52.59Q-50.7530859375-56.35 -49.4630859375-59.23Q-48.1730859375-62.11 -45.8530859375-64.06Q-43.5330859375-66.02 -40.3030859375-67.02Q-37.0830859375-68.02 -33.2230859375-68.02L-33.2230859375-68.02Q-28.2030859375-68.02 -24.8730859375-66.92Q-21.5530859375-65.82 -19.5830859375-63.62Q-17.603085937499998-61.43 -16.793085937500003-58.11Q-15.993085937499998-54.79 -15.993085937499998-50.34L-15.993085937499998-50.34L-15.993085937499998 0L-25.1730859375 0L-26.0530859375-5.76Q-28.0530859375-2.88 -31.3930859375-1.07Q-34.7430859375 0.73 -39.0330859375 0.73ZM-33.5730859375-8.79L-33.5730859375-8.79Q-32.0030859375-8.79 -30.5130859375-9.59Q-29.0330859375-10.4 -28.0030859375-11.57L-28.0030859375-11.57L-28.0030859375-32.62Q-28.9830859375-32.23 -30.2030859375-31.69Q-31.4230859375-31.15 -32.8330859375-30.27L-32.8330859375-30.27Q-34.153085937499995-29.44 -35.423085937500005-28.27Q-36.6930859375-27.1 -37.6930859375-25.49Q-38.6930859375-23.88 -39.3030859375-21.85Q-39.9130859375-19.82 -39.9130859375-17.33L-39.9130859375-17.33Q-39.9130859375-13.48 -38.403085937499995-11.13Q-36.893085937500004-8.79 -33.5730859375-8.79ZM-3.1958984375000004 0L-3.1958984375000004-67.24L 6.3741015625-67.24L 7.444101562499998-60.06L 7.444101562499998-60.01Q 8.9141015625-62.3  10.574101562500001-63.84Q 12.234101562500001-65.38  14.014101562499999-66.31Q 15.7941015625-67.24  17.6741015625-67.63Q 19.5541015625-68.02  21.4141015625-68.02L 21.4141015625-68.02Q 25.364101562499997-68.02  28.1041015625-66.11Q 30.834101562500003-64.21  32.2541015625-60.4L 32.2541015625-60.4Q 33.7141015625-62.6  35.3541015625-64.06Q 36.9841015625-65.53  38.7441015625-66.41Q 40.5041015625-67.29  42.3141015625-67.65Q 44.1141015625-68.02  45.9741015625-68.02L 45.9741015625-68.02Q 51.8341015625-68.02  55.0341015625-63.89Q 58.224101562499996-59.77  58.224101562499996-51.51L 58.224101562499996-51.51L 58.224101562499996 0L 45.8741015625 0L 45.8741015625-51.07Q 45.8741015625-53.27  45.5341015625-54.79Q 45.1941015625-56.3  44.5041015625-57.23Q 43.8241015625-58.15  42.7441015625-58.57Q 41.6741015625-58.98  40.1641015625-58.98L 40.1641015625-58.98Q 38.4541015625-58.98  36.7441015625-57.74Q 35.0341015625-56.49  33.6141015625-54.3L 33.6141015625-54.3Q 33.6641015625-53.86  33.6641015625-53.42Q 33.6641015625-52.98  33.6641015625-52.54L 33.6641015625-52.54L 33.6641015625 0L 21.3141015625 0L 21.3141015625-51.07Q 21.3141015625-53.27  20.9741015625-54.79Q 20.6341015625-56.3  19.9441015625-57.23Q 19.2641015625-58.15  18.1841015625-58.57Q 17.1141015625-58.98  15.604101562499999-58.98L 15.604101562499999-58.98Q 13.944101562499998-58.98  12.234101562500001-57.76Q 10.5241015625-56.54  9.1541015625-54.39L 9.1541015625-54.39L 9.1541015625 0L-3.1958984375000004 0ZM 87.2328515625 0.73L 87.2328515625 0.73Q 82.88285156250001 0.73  79.5428515625-0.88Q 76.1928515625-2.49  73.9028515625-5.91Q 71.6028515625-9.33  70.4328515625-14.67Q 69.2628515625-20.02  69.2628515625-27.54L 69.2628515625-27.54L 69.2628515625-40.23Q 69.2628515625-46.63  70.2128515625-51.2Q 71.1628515625-55.76  72.7028515625-58.86Q 74.2428515625-61.96  76.2728515625-63.77Q 78.2928515625-65.58  80.4428515625-66.53Q 82.5928515625-67.48  84.71285156249999-67.75Q 86.8428515625-68.02  88.6428515625-68.02L 88.6428515625-68.02Q 91.96285156249999-68.02  95.0428515625-67.02Q 98.1228515625-66.02  100.46285156249999-63.6Q 102.8028515625-61.18  104.2028515625-57.13Q 105.5928515625-53.08  105.5928515625-47.02L 105.5928515625-47.02Q 105.5928515625-44.97  105.4728515625-42.87Q 105.3428515625-40.77  105.15285156249999-38.75Q 104.9528515625-36.72  104.6428515625-34.81Q 104.3228515625-32.91  103.9828515625-31.3L 103.9828515625-31.3L 81.6628515625-31.3L 81.6628515625-24.46Q 81.6628515625-20.07  82.0028515625-17.07Q 82.3528515625-14.06  83.1528515625-12.23Q 83.96285156249999-10.4  85.3528515625-9.59Q 86.7428515625-8.79  88.8428515625-8.79L 88.8428515625-8.79Q 89.96285156249999-8.79  91.0428515625-9.25Q 92.1128515625-9.72  92.9228515625-10.79Q 93.7228515625-11.87  94.21285156249999-13.65Q 94.7028515625-15.43  94.7028515625-18.07L 94.7028515625-18.07L 94.7028515625-20.17L 105.0028515625-20.17L 105.0028515625-17.58Q 105.0028515625-8.01  100.44285156250001-3.64Q 95.8728515625 0.73  87.2328515625 0.73ZM 81.6628515625-39.6L 94.0628515625-39.6Q 94.1128515625-40.14  94.1628515625-41.04Q 94.21285156249999-41.94  94.2428515625-42.92Q 94.2628515625-43.9  94.2628515625-44.85Q 94.2628515625-45.8  94.2628515625-46.48L 94.2628515625-46.48Q 94.2628515625-53.13  92.7028515625-56.05Q 91.13285156250001-58.98  88.0628515625-58.98L 88.0628515625-58.98Q 86.4528515625-58.98  85.2328515625-58.23Q 84.0128515625-57.47  83.2228515625-55.69Q 82.4428515625-53.91  82.0528515625-50.98Q 81.6628515625-48.05  81.6628515625-43.7L 81.6628515625-43.7L 81.6628515625-39.6Z" data-textpath="Name" data-text-anchor="middle" data-font-size="100" data-letterspacing="0" data-side="left" data-offset="0" data-dx="0" data-dy="139.5" data-xmlspace="preserve" data-href="" data-font="Fjalla One" data-font-src="/Content/clientfonts/fjallaone.woff" data-font-scale="contain" transform="translate(139.5,139.5)" data-x="139.5" data-y="0" fill="url('#linearGradientSk1mi7fxvca')"></path></g></svg></g><g transform="matrix(0.439,0,0,1.0753,48.6457,93.8602)"><svg width="186.742" height="17.218999999999994" viewBox="-5,79.525,186.742,17.218999999999994" class="thumb"><defs><linearGradient x1="0" y1="0.5" x2="1" y2="0.5" id="linearGradientSk1mi7fxvbo"><stop offset="0%" stop-color="#000000"></stop><stop offset="100%" stop-color="#000000"></stop></linearGradient></defs><g><rect y="84.525" width="176.742" height="7.219" fill="url('#linearGradientSk1mi7fxvbo')"></rect></g></svg></g></g></svg>